<svg width="236" height="237" xmlns="http://www.w3.org/2000/svg" xmlns:xlink="http://www.w3.org/1999/xlink" xml:space="preserve" overflow="hidden"><defs><clipPath id="clip0"><rect x="522" y="241" width="236" height="237"/></clipPath><clipPath id="clip1"><rect x="585" y="277" width="111" height="165"/></clipPath><clipPath id="clip2"><rect x="585" y="277" width="111" height="165"/></clipPath><clipPath id="clip3"><rect x="585" y="277" width="532" height="183"/></clipPath><clipPath id="clip4"><rect x="585" y="277" width="532" height="183"/></clipPath></defs><g clip-path="url(#clip0)" transform="translate(-522 -241)"><path d="M522 261.983C522 250.394 531.394 241 542.983 241L737.017 241C748.606 241 758 250.394 758 261.983L758 457.017C758 468.606 748.606 478 737.017 478L542.983 478C531.394 478 522 468.606 522 457.017Z" fill="#17274D" fill-rule="evenodd"/><path d="M611 241 736.974 241C745.684 241 753.156 246.299 756.348 253.852L758 262.038 758 360C702.871 321.56 722.52 245.089 611 241Z" fill="#0E9EDF" fill-rule="evenodd"/><g clip-path="url(#clip1)"><g clip-path="url(#clip2)"><g clip-path="url(#clip3)"><g clip-path="url(#clip4)"><path d="M38.0067 97.2256 38.0067 190.473C52.3406 189.69 65.5584 181.411 73.1486 168.103 81.0489 154.251 81.6567 137.021 74.7543 122.575 67.622 107.648 53.5822 97.991 38.0067 97.2256ZM7.6056 61.0788 35.706 61.0788 38.0067 61.0788 38.0067 61.1613C66.7746 61.9707 92.9463 78.8533 106.365 105.391 119.533 131.433 118.379 162.767 103.335 187.692 89.087 211.298 64.4745 225.71 38.0067 226.449L38.0067 226.53 7.6056 226.53Z" fill="#FFFFFF" fill-rule="evenodd" transform="matrix(1.00202 0 0 1 577.379 215.921)"/><path d="M457.312 218.716C456.677 219.272 456.111 219.894 455.604 220.562L454.793 219.291C455.628 219.069 456.465 218.865 457.312 218.716ZM407.426 144.974 435.141 144.974 461.91 186.923 490.085 144.974 516.128 144.974 479.689 205.818C472.638 207.317 465.191 209.266 457.558 211.645 455.421 212.311 453.315 212.997 451.261 213.75Z" fill="#FFFFFF" fill-rule="evenodd" transform="matrix(1.00202 0 0 1 577.379 215.921)"/><path d="M518.407 202.866C529.132 203.017 536.251 205.279 537.64 209.732 538.374 212.085 537.443 214.843 535.079 217.812 513.179 211.805 481.805 213.341 449.12 223.533 432.259 228.791 416.994 235.746 404.167 243.652 412.298 233.761 435.218 221.448 463.675 212.574 484.868 205.966 504.618 202.672 518.407 202.866Z" fill="#FFFFFF" fill-rule="evenodd" transform="matrix(1.00202 0 0 1 577.379 215.921)"/><path d="M396.758 181.739C397.478 209.191 378.712 232.116 354.846 232.943 330.978 233.769 311.047 212.186 310.328 184.734 310.318 184.346 310.312 183.958 310.31 183.57L339.74 183.343C339.78 194.554 345.992 203.593 353.616 203.534 361.239 203.476 367.387 194.341 367.347 183.13 367.347 183.006 367.346 182.882 367.344 182.758Z" fill="#FFFFFF" fill-rule="evenodd" transform="matrix(1.00202 0 0 1 577.379 215.921)"/><path d="M310.309 144.974 339.678 144.974 339.678 184.29 310.309 184.29Z" fill="#FFFFFF" transform="matrix(1.00202 0 0 1 577.379 215.921)"/><path d="M367.409 144.74 396.778 144.74 396.778 184.056 367.409 184.056Z" fill="#FFFFFF" transform="matrix(1.00202 0 0 1 577.379 215.921)"/><path d="M226.53 178.556 251.453 178.556 251.453 227.817 226.53 227.817Z" fill="#FFFFFF" transform="matrix(1.00202 0 0 1 577.379 215.921)"/><path d="M226.841 190.821C224.426 165.239 239.381 142.102 260.244 139.14 279.24 136.444 296.913 151.465 301.523 174.22L277.498 181.536C276.19 169.751 269.362 161.954 262.248 164.121 255.615 166.14 250.992 176.177 251.568 187.312Z" stroke="#FFFFFF" stroke-width="0.134073" stroke-linejoin="round" stroke-miterlimit="10" fill="#FFFFFF" fill-rule="evenodd" transform="matrix(1.00202 0 0 1 577.379 215.921)"/><path d="M126.624 189.939C125.905 162.519 144.646 139.621 168.48 138.795 192.315 137.969 212.22 159.528 212.937 186.948 212.947 187.335 212.953 187.723 212.956 188.11L183.565 188.337C183.525 177.137 177.322 168.106 169.708 168.165 162.095 168.223 155.956 177.35 155.996 188.55 155.996 188.674 155.997 188.797 155.999 188.921Z" fill="#FFFFFF" fill-rule="evenodd" transform="matrix(1.00202 0 0 1 577.379 215.921)"/><path d="M183.588 187.332 212.957 187.332 212.957 226.764 183.588 226.764Z" fill="#FFFFFF" transform="matrix(1.00202 0 0 1 577.379 215.921)"/><path d="M126.604 187.683 155.856 187.683 155.856 226.998 126.604 226.998Z" fill="#FFFFFF" transform="matrix(1.00202 0 0 1 577.379 215.921)"/><path d="M126.136 61.5469 155.037 61.5469 155.037 226.881 126.136 226.881Z" fill="#FFFFFF" transform="matrix(1.00202 0 0 1 577.379 215.921)"/></g></g></g></g></g></svg>