<svg width="4532" height="1561" xmlns="http://www.w3.org/2000/svg" xmlns:xlink="http://www.w3.org/1999/xlink" xml:space="preserve" overflow="hidden"><defs><clipPath id="clip0"><rect x="65" y="522" width="4532" height="1561"/></clipPath></defs><g clip-path="url(#clip0)" transform="translate(-65 -522)"><path d="M324.818 830.922 324.818 1627.85C447.32 1621.15 560.284 1550.4 625.152 1436.66 692.671 1318.28 697.865 1171.03 638.875 1047.57 577.92 919.998 457.931 837.464 324.818 830.922ZM65 522 305.155 522 324.818 522 324.818 522.705C570.678 529.622 794.35 673.907 909.03 900.703 1021.57 1123.27 1011.71 1391.06 883.135 1604.08 761.367 1805.82 551.021 1928.99 324.818 1935.31L324.818 1936 65 1936Z" fill="#FFFFFF" fill-rule="evenodd"/><path d="M3908.34 1869.22C3902.91 1873.97 3898.08 1879.29 3893.74 1885L3886.81 1874.13C3893.95 1872.24 3901.1 1870.49 3908.34 1869.22ZM3482 1239 3718.86 1239 3947.64 1597.51 4188.43 1239 4411 1239 4099.58 1758.99C4039.32 1771.8 3975.68 1788.46 3910.44 1808.79 3892.18 1814.48 3874.18 1820.34 3856.63 1826.78Z" fill="#FFFFFF" fill-rule="evenodd"/><path d="M4430.48 1733.76C4522.14 1735.05 4582.98 1754.38 4594.85 1792.44 4601.12 1812.55 4593.17 1836.12 4572.96 1861.49 4385.8 1810.16 4117.67 1823.28 3838.33 1910.39 3694.23 1955.32 3563.77 2014.76 3454.15 2082.33 3523.64 1997.8 3719.52 1892.57 3962.72 1816.73 4143.84 1760.25 4312.63 1732.1 4430.48 1733.76Z" fill="#FFFFFF" fill-rule="evenodd"/><path d="M3390.83 1553.2C3396.98 1787.82 3236.6 1983.74 3032.63 1990.81 2828.65 1997.87 2658.31 1813.41 2652.17 1578.8 2652.08 1575.48 2652.03 1572.17 2652.01 1568.85L2903.53 1566.91C2903.87 1662.72 2956.96 1739.97 3022.12 1739.47 3087.27 1738.97 3139.81 1660.9 3139.47 1565.09 3139.47 1564.03 3139.46 1562.97 3139.44 1561.91Z" fill="#FFFFFF" fill-rule="evenodd"/><rect x="2652" y="1239" width="251" height="336" fill="#FFFFFF"/><rect x="3140" y="1237" width="251" height="336" fill="#FFFFFF"/><rect x="1936" y="1526" width="213" height="421" fill="#FFFFFF"/><path d="M1938.66 1630.82C1918.02 1412.19 2045.83 1214.45 2224.13 1189.14 2386.48 1166.1 2537.52 1294.47 2576.92 1488.94L2371.59 1551.47C2360.41 1450.75 2302.06 1384.11 2241.26 1402.63 2184.57 1419.89 2145.06 1505.67 2149.98 1600.83Z" stroke="#FFFFFF" stroke-width="1.14583" stroke-linejoin="round" stroke-miterlimit="10" fill="#FFFFFF" fill-rule="evenodd"/><path d="M1082.17 1623.28C1076.03 1388.94 1236.19 1193.25 1439.89 1186.19 1643.59 1179.13 1813.7 1363.38 1819.83 1597.72 1819.92 1601.03 1819.97 1604.34 1819.99 1607.65L1568.81 1609.59C1568.47 1513.87 1515.45 1436.69 1450.38 1437.19 1385.32 1437.69 1332.85 1515.69 1333.19 1611.41 1333.19 1612.47 1333.2 1613.52 1333.22 1614.58Z" fill="#FFFFFF" fill-rule="evenodd"/><rect x="1569" y="1601" width="251" height="337" fill="#FFFFFF"/><rect x="1082" y="1604" width="250" height="336" fill="#FFFFFF"/><rect x="1078" y="526" width="247" height="1413" fill="#FFFFFF"/></g></svg>